<svg width="96" height="125" viewBox="0 0 96 125" fill="none" xmlns="http://www.w3.org/2000/svg">
<g style="mix-blend-mode:luminosity">
<rect width="96" height="96" rx="48" transform="matrix(4.37114e-08 -1 -1 -4.37114e-08 96 96)" fill="#E3E3E3"/>
<g clip-path="url(#clip0_93_169)">
<path d="M30.3438 72.8125C30.3438 71.8125 30.875 71.0312 31.4688 70.3125C32.8125 68.7188 34.5312 67.625 36.3437 66.6563C38.4062 65.5625 40.5625 64.7812 42.8125 64.2188C43.375 64.6562 43.8438 65.1875 44.4375 65.5625C47.4375 67.4375 50.8125 66.75 53.1875 64.625C53.3438 64.5 53.4375 64.3125 53.6562 64.2813C57.5625 65.25 61.1563 66.8125 64.1562 69.5938C64.8438 70.25 65.4375 71 65.7812 71.9063C65.875 72.1875 65.9688 72.5 65.9375 72.8125C54.0625 72.8125 42.2188 72.8125 30.3438 72.8125Z" fill="#F6931E"/>
<path d="M44.4687 63.9063C44.4687 63.1563 44.4688 62.4376 44.5 61.6876C44.5 61.3751 44.4375 61.2501 44.125 61.1563C42.5 60.7813 41 60.1251 39.6875 59.1563C37.75 57.7188 36.4687 55.8126 35.5937 53.5938C35.3125 52.9063 35.0938 52.2188 34.9375 51.4688C34.875 51.4376 34.7812 51.3751 34.7812 51.3126C34.5625 50.5938 34.3125 49.9063 34.4063 49.1563C34.8125 48.5313 34.9375 47.8126 34.9375 47.0938C34.9375 46.1251 34.9688 45.1563 34.9375 44.1876C34.8438 42.0001 36.375 39.7501 38.7187 38.9688C40.0312 38.5313 41.375 38.5001 42.7188 38.5938C44.8438 38.7813 46.9688 38.7188 49.0625 38.4063C50.9375 38.1251 52.7812 37.6876 54.5625 37.0001C54.9375 36.8438 55.2188 36.9063 55.5 37.2188C56.2812 38.0938 57.0312 39.0001 58 39.6876C58.2812 39.8751 58.5625 40.0938 58.875 40.2188C59.7188 40.5626 60.1875 41.2188 60.5312 42.0001C61.0625 43.2501 61.1875 44.6251 61.375 45.9376C61.4375 46.4688 61.5 47.0001 61.5938 47.5313C61.6562 47.9376 61.75 48.3126 62 48.6563C62.0625 48.7813 62.0937 48.9063 62.0937 49.0313C62 49.7501 61.8438 50.4376 61.6562 51.1563C61.625 51.2813 61.5625 51.3751 61.4375 51.4688C60.8125 54.0313 59.6875 56.3438 57.8125 58.2188C56.1562 59.8438 54.1562 60.8126 51.875 61.2188C51.75 61.4063 51.5625 61.4376 51.375 61.4688C49.4062 61.8126 47.4375 61.8438 45.4688 61.5313C45.3125 61.5001 45.1562 61.4376 45.0312 61.4063C46.0625 61.8438 47.1562 62.2501 48.3125 62.4376C49.3125 62.5938 50.3125 62.7501 51.3438 62.6251C51.5312 62.5938 51.6875 62.5938 51.8438 62.7501C51.8438 63.1251 51.875 63.5001 51.875 63.9063C51.8125 64.1876 51.5938 64.3126 51.375 64.4688C50.5625 65.0001 49.6562 65.2813 48.6562 65.3126C47.4375 65.3438 46.2812 65.2501 45.2188 64.5938C44.875 64.4063 44.5625 64.2813 44.4687 63.9063Z" fill="#FCCB9A"/>
<path d="M61.875 48.75C61.3438 48.2188 61.4062 47.4688 61.3125 46.8125C61.0938 45.375 61 43.9063 60.5312 42.5C60.1875 41.4688 59.5938 40.7188 58.5938 40.25C57.5 39.75 56.6562 38.875 55.9375 37.9688C55.3438 37.2188 54.8438 37.0313 53.875 37.375C50.25 38.625 46.5 39.0938 42.6562 38.75C40.9375 38.5938 39.2188 38.6563 37.6875 39.5625C35.9375 40.5625 35.0313 42.0625 35 44.0938C34.9688 45.4375 35.125 46.7813 34.9062 48.0938C34.8438 48.5 34.75 48.875 34.4063 49.1563C34.0313 49.3125 33.7813 49.25 33.5313 48.8125C33.2188 48.2813 33.0313 47.6563 32.875 47.0625C32.6563 46.0938 32.5 45.1875 32.4063 44.2188C32.4063 44.0625 32.375 43.9375 32.4688 43.8125C32.2813 41.625 32.0625 39.4375 32.0938 37.25C32.0938 34.9688 32.375 32.7188 33.4062 30.625C34.3125 28.7813 35.6562 27.375 37.375 26.3125C39.7812 24.8125 42.4375 24.0313 45.1875 23.5625C48.7812 23 52.2812 23.3125 55.625 24.9375C57.125 25.6563 58.4688 26.625 59.625 27.8438C59.75 27.9688 59.875 28.0938 60.0312 28.1875C62.4688 29.3125 63.7812 31.3438 64.4062 33.875C64.9375 36.0938 64.9062 38.3438 64.6562 40.5938C64.5312 41.6563 64.3125 42.7188 64.0938 43.7813C64.1562 44.25 64 44.6875 63.8438 45.1563C63.5 46.2813 63.125 47.4063 62.5312 48.4063C62.375 48.5938 62.2812 48.9063 61.875 48.75Z" fill="#51362A"/>
<path d="M61.875 48.75C62.1563 48.7812 62.25 48.5625 62.375 48.375C63.1875 47 63.625 45.5 64 43.9687C64.0313 43.9062 64.0625 43.8125 64.0938 43.75C64.0938 43.9688 64.2188 44.0312 64.375 44.1562C66.6875 45.9687 66.4688 49.7813 63.9375 51.2188C63.1562 51.6875 62.2812 51.7187 61.4375 51.4687C61.7188 50.6562 61.8438 49.7812 62 48.9375C61.9375 48.875 61.9063 48.8125 61.875 48.75Z" fill="#FBBB84"/>
<path d="M32.4687 43.8125C32.6562 45.0625 32.8125 46.3125 33.1562 47.5313C33.2812 47.9375 33.4375 48.3438 33.625 48.7188C33.7812 49.0313 34 49.2188 34.4062 49.125C34.4687 49.9062 34.6562 50.6875 34.875 51.4375C32.875 52.0625 31.1875 50.8125 30.5937 49.0625C30 47.3125 30.3125 45.6875 31.7187 44.3125C31.9375 44.0937 32.2187 44 32.4687 43.8125Z" fill="#FBBB84"/>
<path d="M44.4688 63.9062C46.1563 65.6562 50.1563 65.6562 51.8438 63.9062C52.4688 64 53.0938 64.0938 53.6875 64.3125C52.6875 65.5 51.375 66.1562 49.9063 66.5625C48.125 67.0625 46.4375 66.7812 44.8438 65.9375C44.0625 65.5312 43.3438 65.0313 42.8438 64.25C43.375 64.125 43.9063 64 44.4688 63.9062Z" fill="#F26C21"/>
<path d="M51.7812 62.75C50.375 62.9375 48.9687 62.7812 47.5937 62.4688C46.5937 62.2188 45.625 61.9062 44.75 61.3125C45.25 61.375 45.7188 61.4375 46.2188 61.5C47.4688 61.6562 48.75 61.6562 50 61.5C50.5937 61.4375 51.2187 61.375 51.7812 61.2188C51.8125 61.7188 51.8125 62.25 51.7812 62.75Z" fill="#FBBB85"/>
</g>
<path d="M32.489 111.382C32.597 111.382 32.711 111.412 32.831 111.472C32.963 111.532 33.065 111.61 33.137 111.706L37.907 118.924L37.277 118.906L42.101 111.706C42.257 111.478 42.461 111.37 42.713 111.382C42.905 111.394 43.073 111.466 43.217 111.598C43.361 111.73 43.433 111.904 43.433 112.12V123.262C43.433 123.466 43.361 123.64 43.217 123.784C43.073 123.928 42.893 124 42.677 124C42.461 124 42.281 123.928 42.137 123.784C41.993 123.64 41.921 123.466 41.921 123.262V113.488L42.371 113.578L38.123 120.04C38.051 120.124 37.961 120.196 37.853 120.256C37.757 120.316 37.655 120.346 37.547 120.346C37.439 120.346 37.331 120.316 37.223 120.256C37.115 120.196 37.025 120.124 36.953 120.04L32.759 113.578L33.137 113.11V123.262C33.137 123.466 33.071 123.64 32.939 123.784C32.807 123.928 32.639 124 32.435 124C32.231 124 32.063 123.928 31.931 123.784C31.811 123.64 31.751 123.466 31.751 123.262V112.12C31.751 111.928 31.817 111.76 31.949 111.616C32.093 111.46 32.273 111.382 32.489 111.382ZM50.6369 124.18C49.6769 124.18 48.8369 123.976 48.1169 123.568C47.3969 123.16 46.8329 122.602 46.4249 121.894C46.0289 121.174 45.8309 120.346 45.8309 119.41C45.8309 118.366 46.0349 117.478 46.4429 116.746C46.8629 116.002 47.4029 115.438 48.0629 115.054C48.7349 114.658 49.4429 114.46 50.1869 114.46C50.7389 114.46 51.2729 114.562 51.7889 114.766C52.3049 114.97 52.7609 115.27 53.1569 115.666C53.5529 116.05 53.8709 116.518 54.1109 117.07C54.3509 117.61 54.4769 118.216 54.4889 118.888C54.4889 119.08 54.4169 119.242 54.2729 119.374C54.1289 119.506 53.9609 119.572 53.7689 119.572H46.6589L46.3349 118.33H53.2649L52.9769 118.582V118.186C52.9289 117.694 52.7609 117.274 52.4729 116.926C52.1969 116.566 51.8549 116.29 51.4469 116.098C51.0509 115.906 50.6309 115.81 50.1869 115.81C49.8269 115.81 49.4669 115.876 49.1069 116.008C48.7589 116.128 48.4409 116.332 48.1529 116.62C47.8769 116.896 47.6489 117.256 47.4689 117.7C47.3009 118.144 47.2169 118.678 47.2169 119.302C47.2169 119.998 47.3549 120.61 47.6309 121.138C47.9189 121.666 48.3149 122.086 48.8189 122.398C49.3229 122.698 49.9109 122.848 50.5829 122.848C51.0029 122.848 51.3689 122.794 51.6809 122.686C51.9929 122.578 52.2629 122.446 52.4909 122.29C52.7189 122.122 52.9109 121.954 53.0669 121.786C53.2229 121.678 53.3729 121.624 53.5169 121.624C53.6969 121.624 53.8409 121.684 53.9489 121.804C54.0689 121.924 54.1289 122.068 54.1289 122.236C54.1289 122.44 54.0329 122.62 53.8409 122.776C53.5049 123.148 53.0489 123.478 52.4729 123.766C51.8969 124.042 51.2849 124.18 50.6369 124.18ZM61.2793 114.46C62.0953 114.46 62.7373 114.628 63.2053 114.964C63.6733 115.3 64.0033 115.75 64.1953 116.314C64.3993 116.878 64.5013 117.508 64.5013 118.204V123.262C64.5013 123.466 64.4293 123.64 64.2853 123.784C64.1533 123.928 63.9853 124 63.7813 124C63.5773 124 63.4033 123.928 63.2593 123.784C63.1273 123.64 63.0613 123.466 63.0613 123.262V118.24C63.0613 117.784 62.9893 117.376 62.8453 117.016C62.7133 116.644 62.4853 116.35 62.1613 116.134C61.8493 115.906 61.4173 115.792 60.8653 115.792C60.3613 115.792 59.8993 115.906 59.4793 116.134C59.0593 116.35 58.7233 116.644 58.4713 117.016C58.2193 117.376 58.0933 117.784 58.0933 118.24V123.262C58.0933 123.466 58.0213 123.64 57.8773 123.784C57.7453 123.928 57.5773 124 57.3733 124C57.1693 124 56.9953 123.928 56.8513 123.784C56.7193 123.64 56.6533 123.466 56.6533 123.262V115.414C56.6533 115.21 56.7193 115.042 56.8513 114.91C56.9953 114.766 57.1693 114.694 57.3733 114.694C57.5893 114.694 57.7633 114.766 57.8953 114.91C58.0273 115.042 58.0933 115.21 58.0933 115.414V116.692L57.7333 117.088C57.7933 116.776 57.9313 116.464 58.1473 116.152C58.3633 115.828 58.6333 115.54 58.9573 115.288C59.2813 115.036 59.6413 114.838 60.0373 114.694C60.4333 114.538 60.8473 114.46 61.2793 114.46Z" fill="#0E0F11"/>
</g>
<defs>
<clipPath id="clip0_93_169">
<rect width="36" height="50" fill="white" transform="translate(30 23)"/>
</clipPath>
</defs>
</svg>
