<svg width="96" height="125" viewBox="0 0 96 125" fill="none" xmlns="http://www.w3.org/2000/svg">
<g style="mix-blend-mode:luminosity">
<rect width="96" height="96" rx="48" transform="matrix(4.37114e-08 -1 -1 -4.37114e-08 96 96)" fill="#E3E3E3"/>
<g clip-path="url(#clip0_93_113)">
<path d="M49.9104 23C50.2985 23.209 50.7463 23.194 51.1791 23.2537C55.0299 23.8657 58.3433 25.5672 61.0896 28.2985C64 31.194 65.7612 34.7015 66.3284 38.791C66.403 39.3134 66.4478 39.8209 66.4328 40.3433C66.5522 41.2687 66.5373 41.2836 65.6269 41.2836C64.5672 41.2836 63.5224 41.2836 62.4627 41.2836C62.2388 41.2836 62 41.3134 61.806 41.1791C61.6418 41.0597 61.6269 40.8806 61.6119 40.7015C61.5075 38.9403 61.1194 37.2687 60.3881 35.6567C59.8955 34.5821 59.2687 33.597 58.5224 32.7015C57.4627 31.4328 56.209 30.3881 54.7612 29.5821C52.8657 28.5224 50.8358 27.9701 48.6716 27.8955C46.6567 27.8209 44.7313 28.2239 42.8806 29.0299C41.1343 29.791 39.6269 30.9104 38.3433 32.3284C36.7463 34.1045 35.7164 36.1493 35.209 38.4627C35.0597 39.1642 34.9552 39.8657 34.9104 40.5821C34.8955 40.791 34.9104 41.0149 34.7313 41.1642C34.5224 41.2985 34.2985 41.2687 34.0746 41.2687C33.0149 41.2687 31.9701 41.2687 30.9104 41.2687C30 41.2687 29.9851 41.2537 30.1045 40.3284C30.1045 38.1791 30.6418 36.1493 31.4478 34.1791C32.3731 31.9403 33.7164 29.9701 35.4328 28.2687C37.8507 25.9104 40.7463 24.2836 44.0896 23.4925C44.8657 23.3134 45.6567 23.209 46.4478 23.0896C46.5373 23.0746 46.6418 23.1045 46.7015 23C47.5224 23 48.3284 23 49.1493 23C49.209 23.0597 49.2836 23.0597 49.3433 23C49.5224 23 49.7164 23 49.9104 23Z" fill="#EC539C"/>
<path d="M66.4925 41.2687C66.4627 45.3881 65.2239 49.1045 62.7015 52.3583C60.0895 55.7463 56.6866 57.9553 52.5224 58.9851C52 59.1195 51.4776 59.209 50.9403 59.2986C50.7015 59.3284 50.6119 59.418 50.6119 59.6717C50.6269 60.9702 50.6269 62.2687 50.6119 63.5822C50.6119 63.8807 50.7463 63.9254 51 63.9254C52.194 63.9105 53.3731 63.9254 54.5672 63.9105C54.8507 63.9105 55 63.9404 55 64.2986C54.9701 65.6269 54.9851 66.9702 55 68.2986C55 68.6419 54.8657 68.7016 54.5821 68.6866C53.4179 68.6717 52.2388 68.6866 51.0746 68.6717C50.7313 68.6717 50.6269 68.7613 50.6269 69.1045C50.6418 70.2687 50.6269 71.4478 50.6418 72.612C50.6418 72.9105 50.5672 73.0001 50.2687 73.0001C48.9403 72.9851 47.597 72.9851 46.2687 73.0001C45.9552 73.0001 45.8806 72.9105 45.8955 72.612C45.9104 71.4478 45.8955 70.2687 45.9104 69.1045C45.9104 68.7613 45.806 68.6568 45.4627 68.6717C44.3134 68.6866 43.1493 68.6717 42 68.6866C41.6567 68.6866 41.5224 68.6269 41.5224 68.2389C41.5522 66.9254 41.5373 65.5971 41.5224 64.2836C41.5224 63.9851 41.597 63.8956 41.8955 63.8956C43.0895 63.9105 44.2687 63.8956 45.4627 63.9105C45.806 63.9105 45.9104 63.806 45.8955 63.4627C45.8806 62.2239 45.8806 60.9851 45.8955 59.7613C45.8955 59.418 45.7761 59.3284 45.4627 59.2687C43.5373 58.9702 41.7015 58.3881 39.9701 57.4926C36.8358 55.8807 34.3582 53.5672 32.5672 50.5523C30.8657 47.7016 30.0298 44.5971 30.0149 41.2687C30.209 41.1642 30.4179 41.2239 30.6269 41.209C31.9701 41.1941 33.2985 41.209 34.6418 41.1941C34.9552 41.2389 34.8955 41.4926 34.8955 41.6866C35.0298 44.7016 36.0149 47.3881 37.9403 49.7016C40.2687 52.4926 43.2537 54.1344 46.8955 54.5075C50.3731 54.8657 53.5075 53.9702 56.2836 51.8657C59.2537 49.5971 61 46.5822 61.4925 42.8657C61.5522 42.4627 61.597 42.0598 61.597 41.6568C61.597 41.4777 61.5522 41.2389 61.8358 41.1941C63.2239 41.209 64.6119 41.1941 66 41.209C66.1791 41.209 66.3433 41.1642 66.4925 41.2687Z" fill="#E3187A"/>
<path d="M66.4925 41.2686C64.9105 41.2686 63.3284 41.2686 61.7463 41.2686C61.6717 41.2089 61.6717 41.1343 61.7463 41.0596C61.9254 41.179 62.1194 41.1641 62.3134 41.1641C63.403 41.1641 64.4925 41.1641 65.5672 41.1641C66.3881 41.1641 66.3881 41.1641 66.4179 40.3582C66.5522 40.6567 66.4925 40.9552 66.4925 41.2686Z" fill="#ED5CA2"/>
<path d="M34.7612 41.2686C33.1791 41.2686 31.597 41.2686 30.0149 41.2686C30.0149 40.9701 29.9552 40.6567 30.0896 40.3582C30.1194 41.1641 30.1194 41.1641 30.9403 41.1641C32.0299 41.1641 33.1194 41.1641 34.194 41.1641C34.3881 41.1641 34.5821 41.194 34.7612 41.0596C34.8358 41.1343 34.8358 41.194 34.7612 41.2686Z" fill="#ED5CA2"/>
</g>
<path d="M33.3304 61.083C33.6678 60.2327 34.3022 59.6388 35.058 59.1799C35.6924 58.802 36.3807 58.4916 37.042 58.1542C37.366 57.9922 37.6359 58.0327 37.8519 58.3431C38.0408 58.4781 38.0948 58.6805 38.1623 58.883C39.0666 61.5014 40.7132 63.4989 43.1561 64.8081C44.4923 65.5235 45.9365 65.8879 47.4482 65.9419C50.3095 66.0498 52.7929 65.1186 54.8849 63.202C56.1672 62.0278 57.0445 60.5701 57.6113 58.9235C57.6788 58.7075 57.7193 58.4781 57.9352 58.3431C58.1512 58.0327 58.4211 57.9922 58.7451 58.1542C59.4064 58.4916 60.0813 58.802 60.7291 59.1664C61.5119 59.5983 62.1058 60.2192 62.4567 61.0695C62.4432 61.2989 62.2947 61.4609 62.1733 61.6229C61.0665 63.1075 59.9733 64.6057 58.8395 66.0633C57.9217 67.2511 57.4494 68.5738 57.5033 70.0854C57.5303 70.8547 57.5033 71.6106 57.5033 72.3799C57.5033 72.5823 57.5303 72.8118 57.3819 72.9873C51.0653 72.9873 44.7623 72.9873 38.4457 72.9873C38.2703 72.7983 38.3243 72.5554 38.3108 72.3394C38.2838 71.2462 38.3512 70.1664 38.2568 69.0731C38.1623 67.9529 37.6764 67.0216 37.0285 66.1443C35.9083 64.6327 34.7611 63.1345 33.6408 61.6229C33.4924 61.4744 33.3304 61.3124 33.3304 61.083Z" fill="#FE6473"/>
<path d="M33.3317 61.082C34.7489 62.9041 36.1391 64.7397 37.4753 66.6293C38.1231 67.547 38.393 68.5863 38.4065 69.6931C38.42 70.7998 38.4065 71.9065 38.4065 72.9998C36.8814 72.9998 35.3427 72.9998 33.8176 72.9998C33.2912 72.7164 32.7513 72.4869 32.3734 71.9875C31.8875 71.3262 31.7796 70.5973 31.8875 69.8145C32.198 67.4391 32.5219 65.0636 32.8458 62.7017C32.9403 62.1348 33.0078 61.5679 33.3317 61.082Z" fill="#EF5467"/>
<path d="M57.355 72.9995C57.355 72.0682 57.382 71.1504 57.355 70.2191C57.301 68.613 57.7734 67.2093 58.7721 65.9406C60.0274 64.348 61.2286 62.7014 62.4568 61.0682C62.9022 61.7971 62.9022 62.6474 63.0237 63.4437C63.3071 65.5087 63.5365 67.5872 63.8605 69.6388C64.1034 71.2449 63.4556 72.4191 61.9169 72.905C61.8899 72.9185 61.8764 72.9455 61.8629 72.9725C60.3513 72.9995 58.8531 72.9995 57.355 72.9995Z" fill="#EF5467"/>
<path d="M38.6892 57.9917C35.288 57.0469 32.1027 55.6162 29.2683 53.4837C28.9444 53.2408 28.9444 53.0653 29.1064 52.7279C30.2131 50.4199 30.78 47.9365 31.1984 45.4261C31.7518 42.1193 32.0487 38.7721 32.6696 35.4789C33.1285 33.0224 33.8708 30.674 35.3285 28.6089C37.245 25.8826 39.8904 24.2629 43.1027 23.5071C44.8978 23.0887 46.7198 22.9402 48.5689 23.0212C48.8523 23.1022 49.1493 23.0077 49.4597 23.0887C49.4462 23.3316 49.2573 23.4261 49.1358 23.5611C47.9076 24.7488 46.7333 25.977 45.829 27.4482C44.8303 29.0678 44.1419 30.8089 43.5886 32.6175C43.0487 34.4261 42.7652 36.2617 42.7383 38.1377C42.7383 38.2457 42.7248 38.3672 42.6843 38.4752C42.4278 38.7991 42.0499 38.6641 41.726 38.7046C40.4843 38.8261 39.2291 38.8261 37.9873 38.6911C37.5824 38.6506 37.407 38.4617 37.3665 38.0838C37.3125 37.5574 37.272 37.0175 37.218 36.4776C37.191 36.2347 37.2045 35.9917 37.0696 35.7488C36.5702 36.2212 36.2867 36.7746 36.1248 37.3954C35.9358 38.1108 35.9223 38.8396 35.9223 39.5684C35.9223 40.2568 35.8818 40.2972 35.234 40.4592C34.1947 40.7157 33.4254 41.6469 33.3984 42.7132C33.3579 43.8469 34.0462 44.8457 35.1125 45.1696C35.8953 45.4126 35.8953 45.4126 35.9493 46.2224C36.0708 48.5708 37.2315 50.1905 39.391 51.0948C40.3493 51.4997 41.3076 51.9046 42.2659 52.296C42.4953 52.3905 42.7248 52.4714 42.8327 52.7279C42.9272 53.6457 42.9002 54.5635 42.8462 55.4813C42.8057 56.1021 42.5223 56.6285 41.9689 56.9659C41.0781 57.4248 40.1199 57.6948 39.1886 58.0457C38.9996 58.0862 38.8376 58.1132 38.6892 57.9917Z" fill="#8C5F3D"/>
<path d="M42.6172 38.4612C42.5498 36.8551 42.7117 35.2489 43.1166 33.7103C43.7375 31.3483 44.5473 29.0539 45.924 26.9888C46.8688 25.5717 48.0565 24.3839 49.2847 23.2232C49.3117 23.2097 49.3252 23.1692 49.3387 23.1422C49.0823 23.0208 48.7853 23.2097 48.5559 23.0208C53.2933 23.1557 57.4638 24.5189 60.3657 28.5545C60.4736 28.7164 60.5681 28.8784 60.6761 29.0539C60.6491 29.0944 60.6086 29.1483 60.5681 29.1483C59.8258 29.1483 59.2454 29.5263 58.7056 29.9852C58.4626 29.9852 58.3411 29.7962 58.1792 29.6747C57.4503 29.0944 56.6 29.0269 55.8712 29.4993C55.0884 29.9986 54.7914 30.7545 55.0074 31.6858C55.0344 31.8207 55.1019 31.9692 55.0344 32.1177C54.8994 32.2526 54.7105 32.2661 54.5485 32.3201C53.7117 32.617 53.1853 33.3459 53.1853 34.2097C53.1853 35.033 53.7387 35.7888 54.5755 36.0723C54.7375 36.1262 54.9264 36.1532 55.0479 36.3017C55.1289 36.5986 54.9804 36.8551 54.8724 37.1115C54.751 37.2735 54.562 37.3275 54.4 37.3949C52.4565 38.0158 50.4724 38.4207 48.4614 38.6367C47.8945 38.6907 47.7731 38.6097 47.7731 38.0563C47.7596 37.179 47.7731 36.3017 47.7731 35.4244C47.7731 35.2894 47.7596 35.1545 47.8001 35.1005C47.5436 35.8023 47.1522 36.5042 46.7203 37.206C46.5448 37.5029 46.3019 37.7459 45.978 37.8808C45.0737 38.2722 44.1154 38.4342 43.1436 38.5692C42.9547 38.5962 42.7792 38.5962 42.6172 38.4612Z" fill="#9C6E48"/>
<path d="M38.6892 57.9918C39.7824 57.7489 40.7812 57.2765 41.8204 56.8851C42.0634 56.7771 42.3198 56.7771 42.5763 56.8041C46.0045 57.1415 49.0413 56.2238 51.6192 53.8888C52.0511 53.4974 52.483 53.106 52.8204 52.6201C52.9014 52.5256 52.9959 52.5121 53.0903 52.6066C53.2253 52.836 53.1713 53.079 53.1848 53.3219C53.1848 53.9563 53.1848 54.5906 53.1848 55.225C53.1983 55.9943 53.5492 56.5612 54.2646 56.8716C55.0339 57.209 55.8437 57.452 56.64 57.7624C56.7885 57.8164 56.964 57.8299 57.0584 57.9918C57.3149 58.1673 57.6253 58.2483 57.9087 58.3428C57.3824 60.1648 56.5051 61.8115 55.1149 63.1342C52.6854 65.4421 49.7971 66.4004 46.4634 65.9955C44.1284 65.6986 42.1579 64.6728 40.5112 63.0397C39.1885 61.7305 38.3382 60.1379 37.8253 58.3563C38.1358 58.2483 38.4327 58.1808 38.6892 57.9918Z" fill="#FED6A2"/>
<path d="M57.0716 57.9912C55.9784 57.7078 54.8986 57.3299 53.8998 56.817C53.2925 56.5066 53.0765 55.9262 53.063 55.2649C53.0495 54.3741 53.063 53.4833 53.063 52.5925C53.1575 52.3495 53.414 52.3225 53.6164 52.2281C54.7771 51.7152 55.9784 51.3103 57.0986 50.7164C58.6508 49.8796 59.5685 48.5974 59.7575 46.8293C59.798 46.5054 59.879 46.1949 59.852 45.8575C59.8115 45.4256 60.0409 45.2772 60.4458 45.1962C61.863 44.9127 62.7133 43.4821 62.2814 42.1189C62.0115 41.2686 61.4176 40.7152 60.5538 40.4723C59.8115 40.2698 59.7035 40.0674 59.96 39.2845C60.1084 39.1631 60.2974 39.1766 60.4728 39.1631C61.8495 39.0686 62.6323 37.7864 62.2949 36.6661C62.2544 36.5447 62.2274 36.4097 62.2814 36.2882C62.5379 36.0453 62.8483 35.9643 63.1857 35.9913C63.4826 38.1238 63.7931 40.2698 64.09 42.4023C64.4004 44.6023 64.7109 46.8023 65.2912 48.9618C65.6421 50.271 66.0471 51.5532 66.6544 52.7544C66.8164 53.0919 66.7624 53.2538 66.479 53.4698C63.9685 55.3728 61.1612 56.709 58.1649 57.6538C57.8139 57.7888 57.436 57.8833 57.0716 57.9912Z" fill="#9C6E48"/>
<path d="M58.7178 29.9448C59.1902 29.2429 59.8785 29.027 60.6883 29.054C62.2675 29.5264 62.7399 30.4037 62.3215 32.0908C62.1595 32.7656 61.6061 33.1435 61.1202 33.5484C60.8233 33.7914 60.5129 34.0883 60.0675 34.0748C59.811 33.6294 59.4871 33.238 59.2037 32.8196C59.1227 31.9828 59.0552 31.146 58.6908 30.3632C58.6233 30.2147 58.5963 30.0797 58.7178 29.9448Z" fill="#FE6473"/>
<path d="M60.0816 34.0476C61.0264 33.6292 61.7417 32.9409 62.3356 32.0906C63.3209 32.239 63.9822 32.8059 64.1982 33.6697C64.4141 34.601 64.1037 35.3568 63.2129 35.9912C62.943 36.1531 62.6325 36.2071 62.3356 36.2746C62.2816 36.2881 62.2276 36.2881 62.2006 36.2476C61.6203 35.4513 60.8644 34.8439 60.0546 34.3041C60.0006 34.2231 60.0006 34.1286 60.0816 34.0476Z" fill="#BC445A"/>
<path d="M42.6172 38.4621C43.6969 38.4081 44.7362 38.1652 45.7485 37.8277C46.1264 37.7063 46.3828 37.4768 46.5853 37.1259C47.0307 36.3836 47.4086 35.5872 47.8675 34.8314C47.8675 35.9112 47.881 36.9909 47.854 38.0707C47.8405 38.4891 47.9755 38.5296 48.3669 38.4891C50.4184 38.2731 52.4294 37.8007 54.4135 37.2474C54.4135 37.5443 54.1435 37.5848 53.9546 37.6793C52.4294 38.4081 50.8233 38.8805 49.1902 39.2314C46.6393 39.7713 44.0749 40.1357 41.4565 40.2437C40.9166 40.2707 40.3902 40.3517 39.8503 40.3247C39.5399 40.3112 39.4184 40.4596 39.4184 40.7701C39.4184 42.8351 39.3779 44.9001 39.4454 46.9651C39.4724 47.9639 40.0258 48.7737 40.7276 49.4756C42.0098 50.7713 43.3865 51.959 44.8442 53.0657C45.0466 53.2142 45.3031 53.3357 45.3706 53.6191C45.3031 53.7541 45.1816 53.7406 45.0871 53.7136C44.2908 53.4167 43.4675 53.1602 42.7387 52.6878C41.6454 52.094 40.4577 51.6891 39.3105 51.2167C37.5559 50.4743 36.3546 49.2596 35.9362 47.3565C35.8283 46.8707 35.7608 46.3578 35.8013 45.8584C35.8283 45.548 35.7068 45.4265 35.4099 45.3725C34.0467 45.1296 33.2369 44.1173 33.2503 42.7406C33.2638 41.4989 34.1546 40.5001 35.4503 40.2977C35.7608 40.2437 35.8013 40.0952 35.8013 39.8388C35.7878 39.002 35.7608 38.1517 35.9902 37.3283C36.2062 36.586 36.5841 35.9517 37.2319 35.3713C37.3399 36.3836 37.4344 37.3014 37.5289 38.2326C37.5424 38.3676 37.5154 38.5296 37.7448 38.5431C39.3644 38.678 40.9976 38.705 42.6172 38.4621Z" fill="#FED6A2"/>
<path d="M42.7252 52.688C43.4405 52.8499 44.0614 53.2414 44.7497 53.4708C44.9522 53.5383 45.1411 53.6058 45.3436 53.6733C45.492 53.5518 45.654 53.6193 45.8025 53.6463C47.8675 54.1591 49.838 53.8757 51.7546 52.9984C52.092 52.8499 52.4294 52.5935 52.8478 52.688C52.8073 53.0389 52.5104 53.2549 52.2945 53.4708C50.3644 55.3739 48.0699 56.6156 45.3571 56.953C44.3853 57.0745 43.3865 57.0745 42.4012 56.9125C42.2123 56.8855 42.0098 56.899 41.8209 56.8855C42.4822 56.4266 42.7117 55.7923 42.6982 55.0094C42.6982 54.2401 42.7252 53.4708 42.7252 52.688Z" fill="#FCC78D"/>
<path d="M52.8617 52.6871C51.7955 53.092 50.7697 53.6184 49.6359 53.8614C48.1918 54.1583 46.7611 54.0773 45.3439 53.6724C44.6826 53.146 44.0077 52.6601 43.3869 52.0933C42.1857 51.0135 40.863 50.0552 39.9317 48.7055C39.5133 48.0847 39.2973 47.4098 39.2973 46.654C39.2973 44.697 39.3108 42.7534 39.2838 40.7964C39.2838 40.3375 39.3783 40.189 39.8642 40.189C41.7538 40.162 43.6298 39.9865 45.5059 39.7301C47.2605 39.5007 48.9881 39.2037 50.6887 38.7178C51.9709 38.3534 53.2936 38.016 54.4273 37.2467C54.5488 37.1927 54.6838 37.1387 54.8053 37.0847C54.9672 37.2062 54.9402 37.4086 54.9807 37.5706C55.3721 39.1227 57.0053 39.6626 58.247 38.6504C58.3819 38.5424 58.4764 38.3669 58.6789 38.3669C59.0838 38.7043 59.5967 38.9068 59.9746 39.2982C59.9746 39.3522 59.9881 39.3927 59.9746 39.4467C59.8801 39.9865 60.0151 40.243 60.6359 40.378C61.8641 40.6344 62.62 41.7951 62.5255 43.0368C62.4445 44.2111 61.5402 45.2098 60.339 45.3583C59.9341 45.4123 59.9746 45.6282 59.9746 45.8847C59.9746 47.5313 59.4887 48.9755 58.2335 50.1092C57.6531 50.6356 56.9783 50.9595 56.2629 51.2565C55.1967 51.7018 54.1304 52.1337 53.0642 52.5791C52.9832 52.5926 52.9022 52.6196 52.8617 52.6871Z" fill="#FEE0B1"/>
<path d="M58.7187 29.9445C58.9077 30.6058 59.1911 31.2402 59.2586 31.942C59.2856 32.2659 59.2991 32.5899 59.2991 32.9138C59.2721 32.9273 59.2451 32.9543 59.2181 32.9543C58.2463 32.7518 57.6525 33.1972 57.3016 34.061C57.2071 34.1285 57.1126 34.115 57.0316 34.0745C56.2488 33.6831 55.6279 33.1163 55.1151 32.4144C55.0476 32.3199 55.0071 32.212 55.0206 32.0905C54.6832 30.8758 54.8586 30.0795 55.6144 29.5126C56.4917 28.8377 57.5985 28.9052 58.3948 29.6745C58.4893 29.769 58.6108 29.85 58.7187 29.9445Z" fill="#EF5467"/>
<path d="M58.7185 38.4217C58.3406 38.6916 58.0301 39.0561 57.5712 39.191C56.1406 39.6499 54.8719 38.6781 54.8044 37.0855C54.8719 36.8156 54.9393 36.5456 55.0068 36.2892C54.9798 35.9113 55.2768 35.7223 55.4792 35.4794C55.8436 35.0205 56.3295 34.6966 56.8154 34.3861C56.9504 34.3052 57.0988 34.2242 57.2743 34.3051C57.4902 34.7775 57.8682 35.142 58.1921 35.5469C58.0976 36.4377 58.3001 37.288 58.6645 38.0978C58.6915 38.2058 58.759 38.3002 58.7185 38.4217Z" fill="#FE6473"/>
<path d="M57.2337 34.3311C56.2619 34.736 55.56 35.4243 54.9932 36.2881C54.2643 36.1531 53.657 35.8427 53.2926 35.1409C52.5907 33.7912 53.4545 32.212 54.9932 32.0906C55.5735 32.9274 56.2889 33.6157 57.2337 34.0476C57.3281 34.1421 57.3281 34.2366 57.2337 34.3311Z" fill="#BC445A"/>
<path d="M58.719 38.4214C58.2061 37.5171 57.8417 36.5723 58.1386 35.506C58.1926 35.4655 58.2466 35.4251 58.314 35.4386C59.1104 35.56 59.6098 35.1821 59.8932 34.4668C59.9202 34.3858 59.9742 34.3183 60.0686 34.3318C60.9055 34.6287 61.4858 35.2496 62.0257 35.8974C62.1337 36.0189 62.2147 36.1539 62.3091 36.2889C62.7005 37.6385 62.3091 38.6508 61.2294 39.1232C60.8245 39.2987 60.3926 39.3257 59.9472 39.3122C59.5018 39.0827 58.9889 38.9208 58.719 38.4214Z" fill="#EF5467"/>
<path d="M60.0821 34.332C59.7176 35.3848 59.2183 35.6817 58.152 35.5063C57.6661 35.2498 57.3692 34.8719 57.2477 34.332C57.2477 34.2376 57.2477 34.1431 57.2477 34.0486C57.5716 32.9419 58.179 32.6044 59.2992 32.9149C59.7311 33.1713 59.9606 33.5762 60.0821 34.0486C60.0821 34.1431 60.0821 34.2376 60.0821 34.332Z" fill="#FEFEFE"/>
<path d="M24.2468 112.228C24.4508 112.336 24.5648 112.498 24.5888 112.714C24.6248 112.93 24.5708 113.128 24.4268 113.308C24.3188 113.464 24.1808 113.548 24.0128 113.56C23.8448 113.572 23.6768 113.536 23.5088 113.452C23.1128 113.212 22.6868 113.026 22.2308 112.894C21.7748 112.75 21.2948 112.678 20.7908 112.678C20.0828 112.678 19.4348 112.804 18.8468 113.056C18.2588 113.296 17.7488 113.638 17.3168 114.082C16.8848 114.526 16.5488 115.054 16.3088 115.666C16.0688 116.278 15.9488 116.956 15.9488 117.7C15.9488 118.492 16.0748 119.2 16.3268 119.824C16.5788 120.448 16.9208 120.982 17.3528 121.426C17.7968 121.858 18.3068 122.188 18.8828 122.416C19.4708 122.644 20.1068 122.758 20.7908 122.758C21.2828 122.758 21.7568 122.692 22.2128 122.56C22.6688 122.428 23.1008 122.236 23.5088 121.984C23.6768 121.9 23.8448 121.87 24.0128 121.894C24.1808 121.918 24.3248 122.002 24.4448 122.146C24.5888 122.338 24.6428 122.542 24.6068 122.758C24.5708 122.962 24.4568 123.112 24.2648 123.208C23.9648 123.388 23.6228 123.556 23.2388 123.712C22.8548 123.856 22.4528 123.97 22.0328 124.054C21.6248 124.138 21.2108 124.18 20.7908 124.18C19.9268 124.18 19.1108 124.03 18.3428 123.73C17.5748 123.43 16.8968 122.998 16.3088 122.434C15.7208 121.87 15.2528 121.192 14.9048 120.4C14.5688 119.596 14.4008 118.696 14.4008 117.7C14.4008 116.764 14.5628 115.906 14.8868 115.126C15.2108 114.346 15.6608 113.668 16.2368 113.092C16.8248 112.516 17.5028 112.066 18.2708 111.742C19.0508 111.418 19.8908 111.256 20.7908 111.256C21.4148 111.256 22.0208 111.34 22.6088 111.508C23.2088 111.676 23.7548 111.916 24.2468 112.228ZM31.0244 114.55C31.8164 114.55 32.4404 114.724 32.8964 115.072C33.3644 115.408 33.6944 115.864 33.8864 116.44C34.0904 117.004 34.1924 117.634 34.1924 118.33V123.262C34.1924 123.466 34.1204 123.64 33.9764 123.784C33.8444 123.928 33.6764 124 33.4724 124C33.2684 124 33.0944 123.928 32.9504 123.784C32.8184 123.64 32.7524 123.466 32.7524 123.262V118.33C32.7524 117.874 32.6864 117.466 32.5544 117.106C32.4224 116.734 32.2004 116.44 31.8884 116.224C31.5884 115.996 31.1744 115.882 30.6464 115.882C30.1544 115.882 29.7044 115.996 29.2964 116.224C28.8884 116.44 28.5644 116.734 28.3244 117.106C28.0844 117.466 27.9644 117.874 27.9644 118.33V123.262C27.9644 123.466 27.8924 123.64 27.7484 123.784C27.6164 123.928 27.4484 124 27.2444 124C27.0404 124 26.8664 123.928 26.7224 123.784C26.5904 123.64 26.5244 123.466 26.5244 123.262V111.4C26.5244 111.196 26.5904 111.028 26.7224 110.896C26.8664 110.752 27.0404 110.68 27.2444 110.68C27.4604 110.68 27.6344 110.752 27.7664 110.896C27.8984 111.028 27.9644 111.196 27.9644 111.4V116.782L27.6044 117.178C27.6644 116.866 27.7964 116.554 28.0004 116.242C28.2044 115.918 28.4624 115.63 28.7744 115.378C29.0864 115.126 29.4344 114.928 29.8184 114.784C30.2024 114.628 30.6044 114.55 31.0244 114.55ZM38.2463 123.262C38.2463 123.466 38.1743 123.64 38.0303 123.784C37.8983 123.928 37.7303 124 37.5263 124C37.3103 124 37.1363 123.928 37.0043 123.784C36.8723 123.64 36.8063 123.466 36.8063 123.262V115.27C36.8063 115.066 36.8723 114.898 37.0043 114.766C37.1483 114.622 37.3223 114.55 37.5263 114.55C37.7303 114.55 37.8983 114.622 38.0303 114.766C38.1743 114.898 38.2463 115.066 38.2463 115.27V123.262ZM37.5263 113.344C37.2263 113.344 37.0043 113.284 36.8603 113.164C36.7163 113.044 36.6443 112.858 36.6443 112.606V112.354C36.6443 112.102 36.7223 111.916 36.8783 111.796C37.0343 111.676 37.2563 111.616 37.5443 111.616C37.8323 111.616 38.0483 111.676 38.1923 111.796C38.3363 111.916 38.4083 112.102 38.4083 112.354V112.606C38.4083 112.858 38.3303 113.044 38.1743 113.164C38.0303 113.284 37.8143 113.344 37.5263 113.344ZM42.417 123.262C42.417 123.466 42.345 123.64 42.201 123.784C42.057 123.928 41.883 124 41.679 124C41.475 124 41.307 123.928 41.175 123.784C41.043 123.64 40.977 123.466 40.977 123.262V111.4C40.977 111.196 41.043 111.028 41.175 110.896C41.319 110.752 41.493 110.68 41.697 110.68C41.913 110.68 42.087 110.752 42.219 110.896C42.351 111.028 42.417 111.196 42.417 111.4V123.262ZM52.7021 110.68C52.9061 110.68 53.0741 110.752 53.2061 110.896C53.3501 111.028 53.4221 111.196 53.4221 111.4V123.262C53.4221 123.466 53.3501 123.64 53.2061 123.784C53.0741 123.928 52.9061 124 52.7021 124C52.4861 124 52.3121 123.928 52.1801 123.784C52.0481 123.64 51.9821 123.466 51.9821 123.262V121.552L52.3241 121.426C52.3241 121.714 52.2341 122.02 52.0541 122.344C51.8741 122.656 51.6281 122.95 51.3161 123.226C51.0041 123.502 50.6321 123.73 50.2001 123.91C49.7801 124.09 49.3241 124.18 48.8321 124.18C48.0281 124.18 47.2961 123.97 46.6361 123.55C45.9881 123.13 45.4721 122.554 45.0881 121.822C44.7161 121.09 44.5301 120.256 44.5301 119.32C44.5301 118.372 44.7161 117.532 45.0881 116.8C45.4721 116.068 45.9881 115.498 46.6361 115.09C47.2841 114.67 48.0041 114.46 48.7961 114.46C49.3001 114.46 49.7741 114.544 50.2181 114.712C50.6621 114.88 51.0461 115.108 51.3701 115.396C51.7061 115.684 51.9701 116.002 52.1621 116.35C52.3541 116.698 52.4501 117.046 52.4501 117.394L51.9821 117.286V111.4C51.9821 111.196 52.0481 111.028 52.1801 110.896C52.3121 110.752 52.4861 110.68 52.7021 110.68ZM48.9941 122.848C49.5941 122.848 50.1221 122.698 50.5781 122.398C51.0461 122.086 51.4061 121.666 51.6581 121.138C51.9221 120.598 52.0541 119.992 52.0541 119.32C52.0541 118.636 51.9221 118.03 51.6581 117.502C51.4061 116.974 51.0461 116.56 50.5781 116.26C50.1221 115.948 49.5941 115.792 48.9941 115.792C48.4061 115.792 47.8781 115.948 47.4101 116.26C46.9541 116.56 46.5941 116.974 46.3301 117.502C46.0661 118.03 45.9341 118.636 45.9341 119.32C45.9341 119.98 46.0661 120.58 46.3301 121.12C46.5941 121.648 46.9541 122.068 47.4101 122.38C47.8781 122.692 48.4061 122.848 48.9941 122.848ZM56.8108 124C56.6068 124 56.4328 123.928 56.2888 123.784C56.1568 123.64 56.0908 123.466 56.0908 123.262V115.414C56.0908 115.21 56.1568 115.042 56.2888 114.91C56.4328 114.766 56.6068 114.694 56.8108 114.694C57.0268 114.694 57.2008 114.766 57.3328 114.91C57.4648 115.042 57.5308 115.21 57.5308 115.414V117.79L57.3148 117.412C57.3868 117.04 57.5128 116.68 57.6928 116.332C57.8848 115.972 58.1248 115.654 58.4128 115.378C58.7008 115.09 59.0308 114.868 59.4028 114.712C59.7748 114.544 60.1828 114.46 60.6268 114.46C60.8908 114.46 61.1308 114.526 61.3468 114.658C61.5748 114.778 61.6888 114.952 61.6888 115.18C61.6888 115.432 61.6228 115.618 61.4908 115.738C61.3588 115.858 61.2088 115.918 61.0408 115.918C60.8848 115.918 60.7348 115.888 60.5908 115.828C60.4468 115.756 60.2668 115.72 60.0508 115.72C59.7508 115.72 59.4508 115.804 59.1508 115.972C58.8628 116.128 58.5928 116.356 58.3408 116.656C58.1008 116.956 57.9028 117.298 57.7468 117.682C57.6028 118.054 57.5308 118.456 57.5308 118.888V123.262C57.5308 123.466 57.4588 123.64 57.3148 123.784C57.1828 123.928 57.0148 124 56.8108 124ZM67.2131 124.18C66.2531 124.18 65.4131 123.976 64.6931 123.568C63.9731 123.16 63.4091 122.602 63.0011 121.894C62.6051 121.174 62.4071 120.346 62.4071 119.41C62.4071 118.366 62.6111 117.478 63.0191 116.746C63.4391 116.002 63.9791 115.438 64.6391 115.054C65.3111 114.658 66.0191 114.46 66.7631 114.46C67.3151 114.46 67.8491 114.562 68.3651 114.766C68.8811 114.97 69.3371 115.27 69.7331 115.666C70.1291 116.05 70.4471 116.518 70.6871 117.07C70.9271 117.61 71.0531 118.216 71.0651 118.888C71.0651 119.08 70.9931 119.242 70.8491 119.374C70.7051 119.506 70.5371 119.572 70.3451 119.572H63.2351L62.9111 118.33H69.8411L69.5531 118.582V118.186C69.5051 117.694 69.3371 117.274 69.0491 116.926C68.7731 116.566 68.4311 116.29 68.0231 116.098C67.6271 115.906 67.2071 115.81 66.7631 115.81C66.4031 115.81 66.0431 115.876 65.6831 116.008C65.3351 116.128 65.0171 116.332 64.7291 116.62C64.4531 116.896 64.2251 117.256 64.0451 117.7C63.8771 118.144 63.7931 118.678 63.7931 119.302C63.7931 119.998 63.9311 120.61 64.2071 121.138C64.4951 121.666 64.8911 122.086 65.3951 122.398C65.8991 122.698 66.4871 122.848 67.1591 122.848C67.5791 122.848 67.9451 122.794 68.2571 122.686C68.5691 122.578 68.8391 122.446 69.0671 122.29C69.2951 122.122 69.4871 121.954 69.6431 121.786C69.7991 121.678 69.9491 121.624 70.0931 121.624C70.2731 121.624 70.4171 121.684 70.5251 121.804C70.6451 121.924 70.7051 122.068 70.7051 122.236C70.7051 122.44 70.6091 122.62 70.4171 122.776C70.0811 123.148 69.6251 123.478 69.0491 123.766C68.4731 124.042 67.8611 124.18 67.2131 124.18ZM77.8555 114.46C78.6715 114.46 79.3135 114.628 79.7815 114.964C80.2495 115.3 80.5795 115.75 80.7715 116.314C80.9755 116.878 81.0775 117.508 81.0775 118.204V123.262C81.0775 123.466 81.0055 123.64 80.8615 123.784C80.7295 123.928 80.5615 124 80.3575 124C80.1535 124 79.9795 123.928 79.8355 123.784C79.7035 123.64 79.6375 123.466 79.6375 123.262V118.24C79.6375 117.784 79.5655 117.376 79.4215 117.016C79.2895 116.644 79.0615 116.35 78.7375 116.134C78.4255 115.906 77.9935 115.792 77.4415 115.792C76.9375 115.792 76.4755 115.906 76.0555 116.134C75.6355 116.35 75.2995 116.644 75.0475 117.016C74.7955 117.376 74.6695 117.784 74.6695 118.24V123.262C74.6695 123.466 74.5975 123.64 74.4535 123.784C74.3215 123.928 74.1535 124 73.9495 124C73.7455 124 73.5715 123.928 73.4275 123.784C73.2955 123.64 73.2295 123.466 73.2295 123.262V115.414C73.2295 115.21 73.2955 115.042 73.4275 114.91C73.5715 114.766 73.7455 114.694 73.9495 114.694C74.1655 114.694 74.3395 114.766 74.4715 114.91C74.6035 115.042 74.6695 115.21 74.6695 115.414V116.692L74.3095 117.088C74.3695 116.776 74.5075 116.464 74.7235 116.152C74.9395 115.828 75.2095 115.54 75.5335 115.288C75.8575 115.036 76.2175 114.838 76.6135 114.694C77.0095 114.538 77.4235 114.46 77.8555 114.46Z" fill="#0E0F11"/>
</g>
<defs>
<clipPath id="clip0_93_113">
<rect width="37" height="50" fill="white" transform="translate(30 23)"/>
</clipPath>
</defs>
</svg>
