<svg width="96" height="125" viewBox="0 0 96 125" fill="none" xmlns="http://www.w3.org/2000/svg">
<rect width="96" height="96" rx="48" transform="matrix(4.37114e-08 -1 -1 -4.37114e-08 96 96)" fill="#FAD8DF"/>
<g clip-path="url(#clip0_93_143)">
<path d="M37.3218 55.5287C36.2299 53.7471 35.4828 51.793 35.1954 49.7241C35.1379 49.1494 35.023 48.5747 35.023 47.9425C35.023 43.7471 34.9655 39.6091 35.023 35.4137C35.1379 29.3218 40.0805 23.8045 46.1724 23.1149C52.7816 22.3103 58.7011 26.3908 60.3678 32.8275C60.6552 33.862 60.7701 34.954 60.7701 36.0459C60.7701 42.6551 60.7701 49.2068 60.7701 55.816C60.7701 55.931 60.7701 55.9884 60.7701 56.1034C60.5402 56.1609 60.4253 55.9885 60.3103 55.8735C59.2759 54.954 58.0115 54.3793 56.6322 54.2068C56.4598 54.2068 56.2874 54.1494 56.1724 54.0919C57.8391 54.839 59.2759 55.9885 60.5977 57.3103C60.7126 57.4252 60.7126 57.5402 60.7701 57.6551C60.7701 57.7126 60.8276 57.7126 60.8276 57.7701V57.8275C60.1954 58.8045 59.2759 59.5517 58.3563 60.2413C56.8621 61.3333 55.2529 62.0804 53.4138 62.4252C48.1264 63.3448 43.4713 62.1953 39.5632 58.4597C38.8736 57.8275 38.2414 57.0804 37.6667 56.3333C37.4943 56.0459 37.3218 55.816 37.3218 55.5287Z" fill="#F43232"/>
<path d="M37.3218 55.5287C38.5862 57.4252 40.1379 59.0344 42.092 60.2413C45.1379 62.1379 48.4138 62.7701 51.9195 62.4252C52.3793 62.3678 52.8966 62.3103 53.3563 62.1954C53.5862 62.4827 53.4713 62.7126 53.3563 63C52.8391 64.8965 52.3218 66.7931 51.7471 68.7471C51.5172 69.6666 51.5172 69.6666 52.4368 69.6666C54.2184 69.6666 56 69.6666 57.7241 69.6666C58.0115 69.6666 58.2989 69.6666 58.5862 69.6666C58.931 69.6091 59.2759 69.6666 59.6782 69.6666C60.5402 69.6666 60.5402 69.6666 60.5402 68.8045C60.5402 68.4597 60.5402 68.1149 60.5402 67.7126C60.5402 64.6666 60.5402 61.6781 60.5402 58.6321C60.5402 58.2873 60.4828 58 60.7126 57.7126V57.6551C62.6092 59.6091 63.7012 62.0229 63.9885 64.7241C64.2759 67.3103 64.046 69.8965 64.1035 72.4827C64.1035 72.7701 64.046 72.8275 63.7586 72.8275C63.6437 72.8275 63.5862 72.8275 63.4713 72.8275C52.954 72.8275 42.4943 72.8275 31.977 72.8275C31.5172 72.8275 31.3448 72.7126 31.3448 72.1954C31.4023 70.3563 31.4023 68.5172 31.3448 66.7356C31.2874 62.1379 33.2414 58.5172 36.8046 55.7011C37.1494 55.7011 37.2644 55.6436 37.3218 55.5287Z" fill="#3D3D3D"/>
<path d="M60.8276 57.5976C59.7931 56.6206 58.8161 55.7011 57.6092 54.954C57.092 54.6091 56.5172 54.3218 56 54.0344C57.1494 54.0344 59.1034 54.3793 60.8276 56.1034C60.8276 56.6206 60.8276 57.0804 60.8276 57.5976Z" fill="#E52626"/>
<path d="M39.6782 34.6666C39.7356 34.6092 39.7356 34.6092 39.7931 34.5517C39.8506 34.3793 39.9655 34.2069 40.0805 34.0345C42.5517 30.3563 47.8966 29.1494 52.0345 30.9885C54.3333 31.9655 56 33.5747 56.8621 35.931C56.977 36.2758 57.1494 36.5632 57.1494 36.9655C57.2644 37.1954 57.2069 37.4827 57.3218 37.7126C57.4943 39.5517 57.4943 41.3908 57.3218 43.1724C57.3793 44.3218 56.977 45.2988 56.4598 46.2758C55.3678 48.4597 53.5862 49.954 51.3448 50.8735C49.5057 51.5057 47.6092 51.7931 45.6552 51.1609C43.7586 50.2988 42.2644 48.977 41.0575 47.3678C39.2184 44.8965 38.4138 42.1379 38.5287 39.0919C38.5862 37.7126 38.931 36.4483 39.5057 35.1839C39.5057 35.0115 39.5632 34.8391 39.6782 34.6666Z" fill="#FCC7A7"/>
<path d="M60.8276 57.7126C60.8276 61.6207 60.8276 65.4713 60.8276 69.3793C60.8276 69.7241 60.7701 69.8966 60.3678 69.8391C59.7931 69.7816 59.2184 69.8391 58.6437 69.8391C58.5287 69.7241 58.4713 69.4943 58.4713 69.3218C58.4713 67.3678 58.4138 65.4713 58.5862 63.5172C58.5862 63.4598 58.6437 63.4598 58.5862 63.5172C58.5287 64.954 58.3563 66.5057 58.1839 68.0575C58.1264 68.6322 58.1839 69.2644 57.8391 69.8391C55.8276 69.8391 53.8161 69.8391 51.8046 69.8391C51.3448 69.8391 51.4598 69.6092 51.5172 69.3793C52.1494 67.1379 52.7241 64.954 53.3563 62.7126C53.4138 62.5402 53.4713 62.3678 53.4138 62.1954C55.5402 61.7931 57.3218 60.8736 58.9885 59.4943C59.6207 58.977 60.1954 58.3448 60.8276 57.7126Z" fill="#E52626"/>
<path d="M51.3448 50.7011C54.3333 49.4368 56.2299 47.2528 57.092 44.1494C57.1494 43.862 57.2069 43.5172 57.2644 43.2299C57.3218 43.2873 57.3218 43.4023 57.3218 43.4597C57.3218 45.1264 57.3793 46.8505 57.1494 48.5172C56.9195 50.1264 56.5172 51.6781 55.9425 53.1724C55.6552 53.9195 55.6552 53.9195 54.908 53.5747C53.7586 53.0574 52.5517 52.7126 51.3448 52.5402C51.1149 51.908 51.1149 51.3333 51.3448 50.7011Z" fill="#D11414"/>
<path d="M56.4598 57.5977C53.4713 59.7816 50.1379 60.4712 46.4598 59.5517C42.7241 58.6322 39.6207 55.4712 38.7586 52.6552C43.3563 58.7471 49.3908 59.8391 56.4598 57.5977Z" fill="#E52626"/>
<path d="M56.7471 35.9885C53.9885 29.2069 44.4483 28.4597 40.2529 33.977C40.1954 34.0344 40.1379 34.0919 40.0805 34.2069C39.9655 34.2069 39.908 34.2069 39.9655 34.0919C41.4598 31.6781 43.5862 30.1839 46.4023 29.7241C49.7356 29.1494 52.6092 30.1264 54.908 32.5402C55.8276 33.5172 56.5747 34.6092 56.8621 35.931C56.9195 35.9885 56.8621 35.9885 56.7471 35.9885Z" fill="#D11414"/>
<path d="M51.3448 50.7012C51.3448 51.3334 51.3448 51.9081 51.3448 52.5403C49.3333 52.4828 47.4368 52.138 45.6552 51.1609C46.4023 51.1609 47.1494 51.3908 47.954 51.3908C49.1035 51.3334 50.2529 51.1035 51.3448 50.7012Z" fill="#ECB393"/>
<path d="M56.7471 35.9885C56.8046 35.931 56.8046 35.931 56.8621 35.8735C57.0345 36.2184 57.2069 36.5632 57.2069 36.9655C57.1494 37.023 57.1494 37.023 57.092 36.9655C56.977 36.6207 56.8621 36.3333 56.7471 35.9885Z" fill="#DB2826"/>
<path d="M57.092 36.9656C57.1494 36.9656 57.1494 36.9656 57.2069 36.9656C57.3793 37.1955 57.3218 37.4828 57.3218 37.7127C57.1494 37.4828 57.1494 37.1955 57.092 36.9656Z" fill="#E23430"/>
<path d="M39.9655 34.0344C40.023 34.0919 40.023 34.0919 40.0805 34.1494C40.023 34.3218 39.9655 34.4942 39.7931 34.5517C39.7356 34.3793 39.7931 34.2068 39.9655 34.0344Z" fill="#DA2725"/>
<path d="M39.6782 34.6666C39.7356 34.8965 39.5632 35.0115 39.4483 35.1264C39.4483 34.954 39.4483 34.7816 39.6782 34.6666Z" fill="#DE322E"/>
<path d="M57.8391 69.839C57.954 68.9195 58.069 67.9999 58.1839 67.0804C58.3563 65.7586 58.4713 64.4942 58.7011 63.1724C58.7011 65.4137 58.7011 67.5976 58.7011 69.839C58.4138 69.839 58.1264 69.839 57.8391 69.839Z" fill="#D11414"/>
</g>
<path d="M31.3599 111.346C31.5519 111.346 31.7259 111.412 31.8819 111.544C32.0499 111.676 32.1339 111.862 32.1339 112.102C32.1339 112.186 32.1219 112.276 32.0979 112.372L28.2639 123.532C28.2159 123.676 28.1259 123.79 27.9939 123.874C27.8739 123.946 27.7479 123.988 27.6159 124C27.4719 124 27.3339 123.964 27.2019 123.892C27.0699 123.808 26.9679 123.688 26.8959 123.532L23.8899 116.26L24.0339 116.314L21.0459 123.532C20.9739 123.688 20.8719 123.808 20.7399 123.892C20.6079 123.964 20.4699 124 20.3259 124C20.1939 123.988 20.0619 123.946 19.9299 123.874C19.8099 123.79 19.7259 123.676 19.6779 123.532L15.8439 112.372C15.8199 112.276 15.8079 112.192 15.8079 112.12C15.8079 111.88 15.8919 111.694 16.0599 111.562C16.2399 111.418 16.4199 111.346 16.5999 111.346C16.7439 111.346 16.8819 111.388 17.0139 111.472C17.1459 111.556 17.2359 111.67 17.2839 111.814L20.6499 121.75H20.3979L23.3319 114.496C23.3919 114.352 23.4819 114.238 23.6019 114.154C23.7219 114.07 23.8599 114.028 24.0159 114.028C24.1599 114.028 24.2919 114.07 24.4119 114.154C24.5439 114.238 24.6339 114.352 24.6819 114.496L27.5259 121.642L27.3099 121.732L30.6579 111.814C30.7059 111.67 30.7959 111.556 30.9279 111.472C31.0599 111.388 31.2039 111.346 31.3599 111.346ZM42.5079 119.32C42.5079 120.256 42.2979 121.09 41.8779 121.822C41.4699 122.554 40.9119 123.13 40.2039 123.55C39.5079 123.97 38.7219 124.18 37.8459 124.18C36.9699 124.18 36.1779 123.97 35.4699 123.55C34.7619 123.13 34.1979 122.554 33.7779 121.822C33.3699 121.09 33.1659 120.256 33.1659 119.32C33.1659 118.384 33.3699 117.55 33.7779 116.818C34.1979 116.086 34.7619 115.51 35.4699 115.09C36.1779 114.67 36.9699 114.46 37.8459 114.46C38.7219 114.46 39.5079 114.67 40.2039 115.09C40.9119 115.51 41.4699 116.086 41.8779 116.818C42.2979 117.55 42.5079 118.384 42.5079 119.32ZM41.0679 119.32C41.0679 118.624 40.9239 118.012 40.6359 117.484C40.3599 116.956 39.9759 116.542 39.4839 116.242C39.0039 115.942 38.4579 115.792 37.8459 115.792C37.2339 115.792 36.6819 115.942 36.1899 116.242C35.7099 116.542 35.3259 116.956 35.0379 117.484C34.7499 118.012 34.6059 118.624 34.6059 119.32C34.6059 120.004 34.7499 120.61 35.0379 121.138C35.3259 121.666 35.7099 122.086 36.1899 122.398C36.6819 122.698 37.2339 122.848 37.8459 122.848C38.4579 122.848 39.0039 122.698 39.4839 122.398C39.9759 122.086 40.3599 121.666 40.6359 121.138C40.9239 120.61 41.0679 120.004 41.0679 119.32ZM49.1198 114.55C49.9358 114.55 50.5958 114.76 51.0998 115.18C51.6158 115.588 51.9578 116.17 52.1258 116.926H51.8558L51.9818 116.602C52.1258 116.266 52.3718 115.942 52.7198 115.63C53.0678 115.318 53.4698 115.06 53.9258 114.856C54.3818 114.652 54.8558 114.55 55.3478 114.55C56.1398 114.55 56.7638 114.724 57.2198 115.072C57.6758 115.408 57.9998 115.864 58.1918 116.44C58.3958 117.004 58.4978 117.64 58.4978 118.348V123.262C58.4978 123.466 58.4258 123.64 58.2818 123.784C58.1498 123.928 57.9818 124 57.7778 124C57.5618 124 57.3878 123.928 57.2558 123.784C57.1238 123.64 57.0578 123.466 57.0578 123.262V118.384C57.0578 117.916 56.9858 117.496 56.8418 117.124C56.7098 116.74 56.4878 116.44 56.1758 116.224C55.8758 115.996 55.4618 115.882 54.9338 115.882C54.4418 115.882 53.9918 115.996 53.5838 116.224C53.1758 116.44 52.8518 116.74 52.6118 117.124C52.3718 117.496 52.2518 117.916 52.2518 118.384V123.262C52.2518 123.466 52.1858 123.64 52.0538 123.784C51.9218 123.928 51.7478 124 51.5318 124C51.3278 124 51.1538 123.928 51.0098 123.784C50.8778 123.64 50.8118 123.466 50.8118 123.262V118.33C50.8118 117.874 50.7458 117.466 50.6138 117.106C50.4938 116.734 50.2838 116.44 49.9838 116.224C49.6838 115.996 49.2698 115.882 48.7418 115.882C48.2618 115.882 47.8238 115.996 47.4278 116.224C47.0318 116.44 46.7138 116.734 46.4738 117.106C46.2338 117.466 46.1138 117.874 46.1138 118.33V123.262C46.1138 123.466 46.0418 123.64 45.8978 123.784C45.7658 123.928 45.5978 124 45.3938 124C45.1898 124 45.0158 123.928 44.8718 123.784C44.7398 123.64 44.6738 123.466 44.6738 123.262V115.414C44.6738 115.21 44.7398 115.042 44.8718 114.91C45.0158 114.766 45.1898 114.694 45.3938 114.694C45.6098 114.694 45.7838 114.766 45.9158 114.91C46.0478 115.042 46.1138 115.21 46.1138 115.414V116.782L45.7178 117.214C45.7658 116.902 45.8858 116.59 46.0778 116.278C46.2818 115.966 46.5398 115.678 46.8518 115.414C47.1638 115.15 47.5118 114.94 47.8958 114.784C48.2798 114.628 48.6878 114.55 49.1198 114.55ZM65.4641 124.18C64.5041 124.18 63.6641 123.976 62.9441 123.568C62.2241 123.16 61.6601 122.602 61.2521 121.894C60.8561 121.174 60.6581 120.346 60.6581 119.41C60.6581 118.366 60.8621 117.478 61.2701 116.746C61.6901 116.002 62.2301 115.438 62.8901 115.054C63.5621 114.658 64.2701 114.46 65.0141 114.46C65.5661 114.46 66.1001 114.562 66.6161 114.766C67.1321 114.97 67.5881 115.27 67.9841 115.666C68.3801 116.05 68.6981 116.518 68.9381 117.07C69.1781 117.61 69.3041 118.216 69.3161 118.888C69.3161 119.08 69.2441 119.242 69.1001 119.374C68.9561 119.506 68.7881 119.572 68.5961 119.572H61.4861L61.1621 118.33H68.0921L67.8041 118.582V118.186C67.7561 117.694 67.5881 117.274 67.3001 116.926C67.0241 116.566 66.6821 116.29 66.2741 116.098C65.8781 115.906 65.4581 115.81 65.0141 115.81C64.6541 115.81 64.2941 115.876 63.9341 116.008C63.5861 116.128 63.2681 116.332 62.9801 116.62C62.7041 116.896 62.4761 117.256 62.2961 117.7C62.1281 118.144 62.0441 118.678 62.0441 119.302C62.0441 119.998 62.1821 120.61 62.4581 121.138C62.7461 121.666 63.1421 122.086 63.6461 122.398C64.1501 122.698 64.7381 122.848 65.4101 122.848C65.8301 122.848 66.1961 122.794 66.5081 122.686C66.8201 122.578 67.0901 122.446 67.3181 122.29C67.5461 122.122 67.7381 121.954 67.8941 121.786C68.0501 121.678 68.2001 121.624 68.3441 121.624C68.5241 121.624 68.6681 121.684 68.7761 121.804C68.8961 121.924 68.9561 122.068 68.9561 122.236C68.9561 122.44 68.8601 122.62 68.6681 122.776C68.3321 123.148 67.8761 123.478 67.3001 123.766C66.7241 124.042 66.1121 124.18 65.4641 124.18ZM76.1064 114.46C76.9224 114.46 77.5644 114.628 78.0324 114.964C78.5004 115.3 78.8304 115.75 79.0224 116.314C79.2264 116.878 79.3284 117.508 79.3284 118.204V123.262C79.3284 123.466 79.2564 123.64 79.1124 123.784C78.9804 123.928 78.8124 124 78.6084 124C78.4044 124 78.2304 123.928 78.0864 123.784C77.9544 123.64 77.8884 123.466 77.8884 123.262V118.24C77.8884 117.784 77.8164 117.376 77.6724 117.016C77.5404 116.644 77.3124 116.35 76.9884 116.134C76.6764 115.906 76.2444 115.792 75.6924 115.792C75.1884 115.792 74.7264 115.906 74.3064 116.134C73.8864 116.35 73.5504 116.644 73.2984 117.016C73.0464 117.376 72.9204 117.784 72.9204 118.24V123.262C72.9204 123.466 72.8484 123.64 72.7044 123.784C72.5724 123.928 72.4044 124 72.2004 124C71.9964 124 71.8224 123.928 71.6784 123.784C71.5464 123.64 71.4804 123.466 71.4804 123.262V115.414C71.4804 115.21 71.5464 115.042 71.6784 114.91C71.8224 114.766 71.9964 114.694 72.2004 114.694C72.4164 114.694 72.5904 114.766 72.7224 114.91C72.8544 115.042 72.9204 115.21 72.9204 115.414V116.692L72.5604 117.088C72.6204 116.776 72.7584 116.464 72.9744 116.152C73.1904 115.828 73.4604 115.54 73.7844 115.288C74.1084 115.036 74.4684 114.838 74.8644 114.694C75.2604 114.538 75.6744 114.46 76.1064 114.46Z" fill="#0E0F11"/>
<defs>
<clipPath id="clip0_93_143">
<rect width="34" height="50" fill="white" transform="translate(31 23)"/>
</clipPath>
</defs>
</svg>
